M48
METRIC,LZ,000.000
;FILE_FORMAT=3:3
;TYPE=PLATED
;Layer: PTH_Through
;EasyEDA v6.5.15, 2022-10-06 21:05:49
;02616795a82046b39c2d9b7b0e6847de,2aca8c30024240cd9b3e98be76b4c399,10
;Gerber Generator version 0.2
;Holesize 1 = 0.900 mm
T01C0.900
;Holesize 2 = 1.524 mm
T02C1.524
;Holesize 3 = 3.701 mm
T03C3.701
%
G05
G90
T01
X097790Y-046990
X097790Y-044450
X097790Y-041910
X097790Y-039370
X097790Y-036830
X097790Y-034290
X097790Y-031750
X097790Y-029210
X097790Y-026670
X097790Y-024130
X097790Y-021590
X097790Y-019050
X113030Y-019050
X113030Y-021590
X113030Y-024130
X113030Y-026670
X113030Y-029210
X113030Y-031750
X113030Y-034290
X113030Y-036830
X113030Y-039370
X113030Y-041910
X113030Y-044450
X113030Y-046990
T02
X024130Y-025400
X030480Y-022860
X046990Y-025400
X053340Y-022860
X069850Y-025400
X076200Y-022860
X024130Y-048260
X030480Y-045720
X046990Y-048260
X053340Y-045720
X069850Y-048260
X076200Y-045720
X024130Y-071120
X030480Y-068580
X046990Y-071120
X053340Y-068580
X069850Y-071120
X076200Y-068580
X102870Y-071120
X109220Y-068580
T03
X016510Y-015240
X016510Y-082550
X121920Y-082550
X121920Y-015240
M30
