M48
METRIC,LZ,000.000
;FILE_FORMAT=3:3
;TYPE=NON_PLATED
;Layer: NPTH_Through
;EasyEDA v6.5.15, 2022-10-06 21:05:49
;02616795a82046b39c2d9b7b0e6847de,2aca8c30024240cd9b3e98be76b4c399,10
;Gerber Generator version 0.2
;Holesize 1 = 1.905 mm
T01C1.905
;Holesize 2 = 4.191 mm
T02C4.191
%
G05
G90
T01
X033020Y-027940
X022860Y-027940
X055880Y-027940
X045720Y-027940
X078740Y-027940
X068580Y-027940
X033020Y-050800
X022860Y-050800
X055880Y-050800
X045720Y-050800
X078740Y-050800
X068580Y-050800
X033020Y-073660
X022860Y-073660
X055880Y-073660
X045720Y-073660
X078740Y-073660
X068580Y-073660
X111760Y-073660
X101600Y-073660
T02
X027940Y-027940
X050800Y-027940
X073660Y-027940
X027940Y-050800
X050800Y-050800
X073660Y-050800
X027940Y-073660
X050800Y-073660
X073660Y-073660
X106680Y-073660
M30
