G04 Layer: BottomSolderMaskLayer*
G04 EasyEDA v6.5.15, 2022-10-06 21:05:49*
G04 02616795a82046b39c2d9b7b0e6847de,2aca8c30024240cd9b3e98be76b4c399,10*
G04 Gerber Generator version 0.2*
G04 Scale: 100 percent, Rotated: No, Reflected: No *
G04 Dimensions in millimeters *
G04 leading zeros omitted , absolute positions ,4 integer and 5 decimal *
%FSLAX45Y45*%
%MOMM*%

%AMMACRO1*1,1,$1,$2,$3*1,1,$1,$4,$5*1,1,$1,0-$2,0-$3*1,1,$1,0-$4,0-$5*20,1,$1,$2,$3,$4,$5,0*20,1,$1,$4,$5,0-$2,0-$3,0*20,1,$1,0-$2,0-$3,0-$4,0-$5,0*20,1,$1,0-$4,0-$5,$2,$3,0*4,1,4,$2,$3,$4,$5,0-$2,0-$3,0-$4,0-$5,$2,$3,0*%
%ADD10C,1.8542*%
%ADD11MACRO1,0.2032X-0.8255X0.8255X0.8255X0.8255*%
%ADD12C,2.3876*%
%ADD13C,4.7032*%

%LPD*%
D10*
G01*
X9779000Y-4699000D03*
G01*
X9779000Y-4445000D03*
G01*
X9779000Y-4191000D03*
G01*
X9779000Y-3937000D03*
G01*
X9779000Y-3683000D03*
G01*
X9779000Y-3429000D03*
G01*
X9779000Y-3175000D03*
G01*
X9779000Y-2921000D03*
G01*
X9779000Y-2667000D03*
G01*
X9779000Y-2413000D03*
G01*
X9779000Y-2159000D03*
D11*
G01*
X9779000Y-1905000D03*
D10*
G01*
X11303000Y-1905000D03*
G01*
X11303000Y-2159000D03*
G01*
X11303000Y-2413000D03*
G01*
X11303000Y-2667000D03*
G01*
X11303000Y-2921000D03*
G01*
X11303000Y-3175000D03*
G01*
X11303000Y-3429000D03*
G01*
X11303000Y-3683000D03*
G01*
X11303000Y-3937000D03*
G01*
X11303000Y-4191000D03*
G01*
X11303000Y-4445000D03*
G01*
X11303000Y-4699000D03*
D12*
G01*
X2413000Y-2540000D03*
G01*
X3048000Y-2286000D03*
G01*
X4699000Y-2540000D03*
G01*
X5334000Y-2286000D03*
G01*
X6985000Y-2540000D03*
G01*
X7620000Y-2286000D03*
G01*
X2413000Y-4826000D03*
G01*
X3048000Y-4572000D03*
G01*
X4699000Y-4826000D03*
G01*
X5334000Y-4572000D03*
G01*
X6985000Y-4826000D03*
G01*
X7620000Y-4572000D03*
G01*
X2413000Y-7112000D03*
G01*
X3048000Y-6858000D03*
G01*
X4699000Y-7112000D03*
G01*
X5334000Y-6858000D03*
G01*
X6985000Y-7112000D03*
G01*
X7620000Y-6858000D03*
G01*
X10287000Y-7112000D03*
G01*
X10922000Y-6858000D03*
D13*
G01*
X1651000Y-1524000D03*
G01*
X1651000Y-8255000D03*
G01*
X12192000Y-8255000D03*
G01*
X12192000Y-1524000D03*
M02*
