G04 Layer: TopSilkscreenLayer*
G04 EasyEDA v6.5.15, 2022-10-06 21:05:49*
G04 02616795a82046b39c2d9b7b0e6847de,2aca8c30024240cd9b3e98be76b4c399,10*
G04 Gerber Generator version 0.2*
G04 Scale: 100 percent, Rotated: No, Reflected: No *
G04 Dimensions in millimeters *
G04 leading zeros omitted , absolute positions ,4 integer and 5 decimal *
%FSLAX45Y45*%
%MOMM*%

%ADD10C,0.2032*%
%ADD11C,0.1524*%
%ADD12C,0.2032*%

%LPD*%
D10*
X9398025Y-5065572D02*
G01*
X9398025Y-5259628D01*
X9398025Y-5065572D02*
G01*
X9462541Y-5065572D01*
X9490481Y-5074970D01*
X9508769Y-5093512D01*
X9518167Y-5111800D01*
X9527311Y-5139486D01*
X9527311Y-5185714D01*
X9518167Y-5213400D01*
X9508769Y-5231942D01*
X9490481Y-5250484D01*
X9462541Y-5259628D01*
X9398025Y-5259628D01*
X9588271Y-5185714D02*
G01*
X9699015Y-5185714D01*
X9699015Y-5167172D01*
X9689871Y-5148884D01*
X9680727Y-5139486D01*
X9662185Y-5130342D01*
X9634499Y-5130342D01*
X9615957Y-5139486D01*
X9597415Y-5158028D01*
X9588271Y-5185714D01*
X9588271Y-5204256D01*
X9597415Y-5231942D01*
X9615957Y-5250484D01*
X9634499Y-5259628D01*
X9662185Y-5259628D01*
X9680727Y-5250484D01*
X9699015Y-5231942D01*
X9861575Y-5158028D02*
G01*
X9852431Y-5139486D01*
X9824745Y-5130342D01*
X9797059Y-5130342D01*
X9769373Y-5139486D01*
X9759975Y-5158028D01*
X9769373Y-5176570D01*
X9787661Y-5185714D01*
X9833889Y-5195112D01*
X9852431Y-5204256D01*
X9861575Y-5222798D01*
X9861575Y-5231942D01*
X9852431Y-5250484D01*
X9824745Y-5259628D01*
X9797059Y-5259628D01*
X9769373Y-5250484D01*
X9759975Y-5231942D01*
X9922535Y-5065572D02*
G01*
X9931933Y-5074970D01*
X9941077Y-5065572D01*
X9931933Y-5056428D01*
X9922535Y-5065572D01*
X9931933Y-5130342D02*
G01*
X9931933Y-5259628D01*
X10112781Y-5130342D02*
G01*
X10112781Y-5278170D01*
X10103637Y-5305856D01*
X10094493Y-5315000D01*
X10075951Y-5324398D01*
X10048265Y-5324398D01*
X10029723Y-5315000D01*
X10112781Y-5158028D02*
G01*
X10094493Y-5139486D01*
X10075951Y-5130342D01*
X10048265Y-5130342D01*
X10029723Y-5139486D01*
X10011181Y-5158028D01*
X10002037Y-5185714D01*
X10002037Y-5204256D01*
X10011181Y-5231942D01*
X10029723Y-5250484D01*
X10048265Y-5259628D01*
X10075951Y-5259628D01*
X10094493Y-5250484D01*
X10112781Y-5231942D01*
X10173741Y-5130342D02*
G01*
X10173741Y-5259628D01*
X10173741Y-5167172D02*
G01*
X10201681Y-5139486D01*
X10219969Y-5130342D01*
X10247655Y-5130342D01*
X10266197Y-5139486D01*
X10275341Y-5167172D01*
X10275341Y-5259628D01*
X10336301Y-5185714D02*
G01*
X10447299Y-5185714D01*
X10447299Y-5167172D01*
X10437901Y-5148884D01*
X10428757Y-5139486D01*
X10410215Y-5130342D01*
X10382529Y-5130342D01*
X10364241Y-5139486D01*
X10345699Y-5158028D01*
X10336301Y-5185714D01*
X10336301Y-5204256D01*
X10345699Y-5231942D01*
X10364241Y-5250484D01*
X10382529Y-5259628D01*
X10410215Y-5259628D01*
X10428757Y-5250484D01*
X10447299Y-5231942D01*
X10619003Y-5065572D02*
G01*
X10619003Y-5259628D01*
X10619003Y-5158028D02*
G01*
X10600461Y-5139486D01*
X10582173Y-5130342D01*
X10554487Y-5130342D01*
X10535945Y-5139486D01*
X10517403Y-5158028D01*
X10508259Y-5185714D01*
X10508259Y-5204256D01*
X10517403Y-5231942D01*
X10535945Y-5250484D01*
X10554487Y-5259628D01*
X10582173Y-5259628D01*
X10600461Y-5250484D01*
X10619003Y-5231942D01*
X10822203Y-5065572D02*
G01*
X10822203Y-5259628D01*
X10822203Y-5065572D02*
G01*
X10905261Y-5065572D01*
X10933201Y-5074970D01*
X10942345Y-5084114D01*
X10951489Y-5102656D01*
X10951489Y-5121198D01*
X10942345Y-5139486D01*
X10933201Y-5148884D01*
X10905261Y-5158028D01*
X10822203Y-5158028D02*
G01*
X10905261Y-5158028D01*
X10933201Y-5167172D01*
X10942345Y-5176570D01*
X10951489Y-5195112D01*
X10951489Y-5222798D01*
X10942345Y-5241086D01*
X10933201Y-5250484D01*
X10905261Y-5259628D01*
X10822203Y-5259628D01*
X11021847Y-5130342D02*
G01*
X11077219Y-5259628D01*
X11132591Y-5130342D02*
G01*
X11077219Y-5259628D01*
X11058677Y-5296712D01*
X11040135Y-5315000D01*
X11021847Y-5324398D01*
X11012449Y-5324398D01*
X11202695Y-5148884D02*
G01*
X11193551Y-5158028D01*
X11202695Y-5167172D01*
X11212093Y-5158028D01*
X11202695Y-5148884D01*
X11202695Y-5213400D02*
G01*
X11193551Y-5222798D01*
X11202695Y-5231942D01*
X11212093Y-5222798D01*
X11202695Y-5213400D01*
X9398000Y-5383021D02*
G01*
X9398000Y-5576823D01*
X9398000Y-5383021D02*
G01*
X9471913Y-5576823D01*
X9545827Y-5383021D02*
G01*
X9471913Y-5576823D01*
X9545827Y-5383021D02*
G01*
X9545827Y-5576823D01*
X9717531Y-5447537D02*
G01*
X9717531Y-5576823D01*
X9717531Y-5475223D02*
G01*
X9698990Y-5456936D01*
X9680702Y-5447537D01*
X9653015Y-5447537D01*
X9634474Y-5456936D01*
X9615931Y-5475223D01*
X9606788Y-5502910D01*
X9606788Y-5521452D01*
X9615931Y-5549137D01*
X9634474Y-5567679D01*
X9653015Y-5576823D01*
X9680702Y-5576823D01*
X9698990Y-5567679D01*
X9717531Y-5549137D01*
X9778491Y-5447537D02*
G01*
X9778491Y-5576823D01*
X9778491Y-5484621D02*
G01*
X9806177Y-5456936D01*
X9824720Y-5447537D01*
X9852406Y-5447537D01*
X9870947Y-5456936D01*
X9880091Y-5484621D01*
X9880091Y-5576823D01*
X9941052Y-5447537D02*
G01*
X9941052Y-5539994D01*
X9950450Y-5567679D01*
X9968738Y-5576823D01*
X9996424Y-5576823D01*
X10014965Y-5567679D01*
X10042652Y-5539994D01*
X10042652Y-5447537D02*
G01*
X10042652Y-5576823D01*
X10103611Y-5502910D02*
G01*
X10214609Y-5502910D01*
X10214609Y-5484621D01*
X10205211Y-5466079D01*
X10196068Y-5456936D01*
X10177525Y-5447537D01*
X10149840Y-5447537D01*
X10131297Y-5456936D01*
X10113009Y-5475223D01*
X10103611Y-5502910D01*
X10103611Y-5521452D01*
X10113009Y-5549137D01*
X10131297Y-5567679D01*
X10149840Y-5576823D01*
X10177525Y-5576823D01*
X10196068Y-5567679D01*
X10214609Y-5549137D01*
X10275570Y-5383021D02*
G01*
X10275570Y-5576823D01*
X10478770Y-5383021D02*
G01*
X10478770Y-5576823D01*
X10478770Y-5383021D02*
G01*
X10543286Y-5383021D01*
X10570972Y-5392165D01*
X10589513Y-5410707D01*
X10598658Y-5429250D01*
X10608056Y-5456936D01*
X10608056Y-5502910D01*
X10598658Y-5530850D01*
X10589513Y-5549137D01*
X10570972Y-5567679D01*
X10543286Y-5576823D01*
X10478770Y-5576823D01*
X10761218Y-5383021D02*
G01*
X10761218Y-5530850D01*
X10752074Y-5558536D01*
X10742929Y-5567679D01*
X10724388Y-5576823D01*
X10705845Y-5576823D01*
X10687304Y-5567679D01*
X10678159Y-5558536D01*
X10669015Y-5530850D01*
X10669015Y-5512307D01*
X10960861Y-5429250D02*
G01*
X10951463Y-5410707D01*
X10933175Y-5392165D01*
X10914634Y-5383021D01*
X10877550Y-5383021D01*
X10859261Y-5392165D01*
X10840720Y-5410707D01*
X10831575Y-5429250D01*
X10822177Y-5456936D01*
X10822177Y-5502910D01*
X10831575Y-5530850D01*
X10840720Y-5549137D01*
X10859261Y-5567679D01*
X10877550Y-5576823D01*
X10914634Y-5576823D01*
X10933175Y-5567679D01*
X10951463Y-5549137D01*
X10960861Y-5530850D01*
D11*
X10541000Y-1262634D02*
G01*
X10541000Y-1340357D01*
X10546079Y-1356105D01*
X10556493Y-1366520D01*
X10572241Y-1371600D01*
X10582656Y-1371600D01*
X10598150Y-1366520D01*
X10608563Y-1356105D01*
X10613643Y-1340357D01*
X10613643Y-1262634D01*
X10647934Y-1283207D02*
G01*
X10658347Y-1278128D01*
X10674095Y-1262634D01*
X10674095Y-1371600D01*
X9990327Y-4692142D02*
G01*
X10000741Y-4695444D01*
X10007600Y-4702555D01*
X10011156Y-4712970D01*
X10011156Y-4716271D01*
X10007600Y-4726686D01*
X10000741Y-4733544D01*
X9990327Y-4737100D01*
X9986772Y-4737100D01*
X9976358Y-4733544D01*
X9969500Y-4726686D01*
X9965943Y-4716271D01*
X9965943Y-4712970D01*
X9969500Y-4702555D01*
X9976358Y-4695444D01*
X9990327Y-4692142D01*
X10007600Y-4692142D01*
X10024872Y-4695444D01*
X10035286Y-4702555D01*
X10038841Y-4712970D01*
X10038841Y-4719828D01*
X10035286Y-4730242D01*
X10028427Y-4733544D01*
X9965943Y-4465828D02*
G01*
X9969500Y-4476242D01*
X9976358Y-4479544D01*
X9983470Y-4479544D01*
X9990327Y-4476242D01*
X9993629Y-4469129D01*
X9997186Y-4455413D01*
X10000741Y-4445000D01*
X10007600Y-4438142D01*
X10014458Y-4434586D01*
X10024872Y-4434586D01*
X10031729Y-4438142D01*
X10035286Y-4441444D01*
X10038841Y-4451857D01*
X10038841Y-4465828D01*
X10035286Y-4476242D01*
X10031729Y-4479544D01*
X10024872Y-4483100D01*
X10014458Y-4483100D01*
X10007600Y-4479544D01*
X10000741Y-4472686D01*
X9997186Y-4462271D01*
X9993629Y-4448555D01*
X9990327Y-4441444D01*
X9983470Y-4438142D01*
X9976358Y-4438142D01*
X9969500Y-4441444D01*
X9965943Y-4451857D01*
X9965943Y-4465828D01*
X9965943Y-4180586D02*
G01*
X10038841Y-4215129D01*
X9965943Y-4229100D02*
G01*
X9965943Y-4180586D01*
X9976358Y-3933444D02*
G01*
X9969500Y-3937000D01*
X9965943Y-3947413D01*
X9965943Y-3954271D01*
X9969500Y-3964686D01*
X9979913Y-3971544D01*
X9997186Y-3975100D01*
X10014458Y-3975100D01*
X10028427Y-3971544D01*
X10035286Y-3964686D01*
X10038841Y-3954271D01*
X10038841Y-3950970D01*
X10035286Y-3940555D01*
X10028427Y-3933444D01*
X10018013Y-3930142D01*
X10014458Y-3930142D01*
X10004043Y-3933444D01*
X9997186Y-3940555D01*
X9993629Y-3950970D01*
X9993629Y-3954271D01*
X9997186Y-3964686D01*
X10004043Y-3971544D01*
X10014458Y-3975100D01*
X9965943Y-3679444D02*
G01*
X9965943Y-3714242D01*
X9997186Y-3717544D01*
X9993629Y-3714242D01*
X9990327Y-3703828D01*
X9990327Y-3693413D01*
X9993629Y-3683000D01*
X10000741Y-3676142D01*
X10011156Y-3672586D01*
X10018013Y-3672586D01*
X10028427Y-3676142D01*
X10035286Y-3683000D01*
X10038841Y-3693413D01*
X10038841Y-3703828D01*
X10035286Y-3714242D01*
X10031729Y-3717544D01*
X10024872Y-3721100D01*
X9965943Y-3432555D02*
G01*
X10014458Y-3467100D01*
X10014458Y-3415029D01*
X9965943Y-3432555D02*
G01*
X10038841Y-3432555D01*
X9965943Y-3206242D02*
G01*
X9965943Y-3168142D01*
X9993629Y-3188970D01*
X9993629Y-3178555D01*
X9997186Y-3171444D01*
X10000741Y-3168142D01*
X10011156Y-3164586D01*
X10018013Y-3164586D01*
X10028427Y-3168142D01*
X10035286Y-3175000D01*
X10038841Y-3185413D01*
X10038841Y-3195828D01*
X10035286Y-3206242D01*
X10031729Y-3209544D01*
X10024872Y-3213100D01*
X9973056Y-2942844D02*
G01*
X9969500Y-2942844D01*
X9962641Y-2939542D01*
X9959086Y-2935986D01*
X9955529Y-2929128D01*
X9955529Y-2915157D01*
X9959086Y-2908300D01*
X9962641Y-2904744D01*
X9969500Y-2901442D01*
X9976358Y-2901442D01*
X9983215Y-2904744D01*
X9993629Y-2911855D01*
X10028427Y-2946400D01*
X10028427Y-2897886D01*
X9989820Y-2705100D02*
G01*
X9984740Y-2707639D01*
X9979659Y-2712720D01*
X9977120Y-2717800D01*
X9977120Y-2727960D01*
X9979659Y-2733039D01*
X9984740Y-2738120D01*
X9989820Y-2740660D01*
X9997440Y-2743200D01*
X10010140Y-2743200D01*
X10017759Y-2740660D01*
X10022840Y-2738120D01*
X10027920Y-2733039D01*
X10030459Y-2727960D01*
X10030459Y-2717800D01*
X10027920Y-2712720D01*
X10022840Y-2707639D01*
X10017759Y-2705100D01*
X10010140Y-2705100D01*
X10010140Y-2717800D02*
G01*
X10010140Y-2705100D01*
X9977120Y-2688336D02*
G01*
X10030459Y-2688336D01*
X9977120Y-2688336D02*
G01*
X10030459Y-2652776D01*
X9977120Y-2652776D02*
G01*
X10030459Y-2652776D01*
X9977120Y-2636012D02*
G01*
X10030459Y-2636012D01*
X9977120Y-2636012D02*
G01*
X9977120Y-2618231D01*
X9979659Y-2610612D01*
X9984740Y-2605531D01*
X9989820Y-2602992D01*
X9997440Y-2600452D01*
X10010140Y-2600452D01*
X10017759Y-2602992D01*
X10022840Y-2605531D01*
X10027920Y-2610612D01*
X10030459Y-2618231D01*
X10030459Y-2636012D01*
X9989820Y-2451100D02*
G01*
X9984740Y-2453639D01*
X9979659Y-2458720D01*
X9977120Y-2463800D01*
X9977120Y-2473960D01*
X9979659Y-2479039D01*
X9984740Y-2484120D01*
X9989820Y-2486660D01*
X9997440Y-2489200D01*
X10010140Y-2489200D01*
X10017759Y-2486660D01*
X10022840Y-2484120D01*
X10027920Y-2479039D01*
X10030459Y-2473960D01*
X10030459Y-2463800D01*
X10027920Y-2458720D01*
X10022840Y-2453639D01*
X10017759Y-2451100D01*
X10010140Y-2451100D01*
X10010140Y-2463800D02*
G01*
X10010140Y-2451100D01*
X9977120Y-2434336D02*
G01*
X10030459Y-2434336D01*
X9977120Y-2434336D02*
G01*
X10030459Y-2398776D01*
X9977120Y-2398776D02*
G01*
X10030459Y-2398776D01*
X9977120Y-2382012D02*
G01*
X10030459Y-2382012D01*
X9977120Y-2382012D02*
G01*
X9977120Y-2364231D01*
X9979659Y-2356612D01*
X9984740Y-2351531D01*
X9989820Y-2348992D01*
X9997440Y-2346452D01*
X10010140Y-2346452D01*
X10017759Y-2348992D01*
X10022840Y-2351531D01*
X10027920Y-2356612D01*
X10030459Y-2364231D01*
X10030459Y-2382012D01*
X9977120Y-2209800D02*
G01*
X10030459Y-2209800D01*
X9977120Y-2209800D02*
G01*
X9977120Y-2186939D01*
X9979659Y-2179320D01*
X9982200Y-2176779D01*
X9987279Y-2174239D01*
X9992359Y-2174239D01*
X9997440Y-2176779D01*
X9999979Y-2179320D01*
X10002520Y-2186939D01*
X10002520Y-2209800D01*
X10002520Y-2192020D02*
G01*
X10030459Y-2174239D01*
X9977120Y-2157476D02*
G01*
X10030459Y-2121915D01*
X9977120Y-2121915D02*
G01*
X10030459Y-2157476D01*
X9977120Y-2105152D02*
G01*
X10030459Y-2105152D01*
X9977120Y-1963420D02*
G01*
X10030459Y-1963420D01*
X9977120Y-1981200D02*
G01*
X9977120Y-1945639D01*
X9977120Y-1928876D02*
G01*
X10030459Y-1893315D01*
X9977120Y-1893315D02*
G01*
X10030459Y-1928876D01*
X9977120Y-1861312D02*
G01*
X9979659Y-1866392D01*
X9984740Y-1871471D01*
X9989820Y-1874012D01*
X9997440Y-1876552D01*
X10010140Y-1876552D01*
X10017759Y-1874012D01*
X10022840Y-1871471D01*
X10027920Y-1866392D01*
X10030459Y-1861312D01*
X10030459Y-1851152D01*
X10027920Y-1846071D01*
X10022840Y-1840992D01*
X10017759Y-1838452D01*
X10010140Y-1835912D01*
X9997440Y-1835912D01*
X9989820Y-1838452D01*
X9984740Y-1840992D01*
X9979659Y-1846071D01*
X9977120Y-1851152D01*
X9977120Y-1861312D01*
X11069320Y-1981200D02*
G01*
X11122659Y-1981200D01*
X11069320Y-1981200D02*
G01*
X11069320Y-1958339D01*
X11071859Y-1950720D01*
X11074400Y-1948179D01*
X11079479Y-1945639D01*
X11084559Y-1945639D01*
X11089640Y-1948179D01*
X11092179Y-1950720D01*
X11094720Y-1958339D01*
X11094720Y-1981200D01*
X11094720Y-1963420D02*
G01*
X11122659Y-1945639D01*
X11069320Y-1908555D02*
G01*
X11122659Y-1928876D01*
X11069320Y-1908555D02*
G01*
X11122659Y-1888236D01*
X11104879Y-1921255D02*
G01*
X11104879Y-1895855D01*
X11069320Y-1871471D02*
G01*
X11122659Y-1858771D01*
X11069320Y-1846071D02*
G01*
X11122659Y-1858771D01*
X11069320Y-1846071D02*
G01*
X11122659Y-1833371D01*
X11069320Y-1820671D02*
G01*
X11122659Y-1833371D01*
X11082020Y-2197100D02*
G01*
X11076940Y-2199639D01*
X11071859Y-2204720D01*
X11069320Y-2209800D01*
X11069320Y-2219960D01*
X11071859Y-2225039D01*
X11076940Y-2230120D01*
X11082020Y-2232660D01*
X11089640Y-2235200D01*
X11102340Y-2235200D01*
X11109959Y-2232660D01*
X11115040Y-2230120D01*
X11120120Y-2225039D01*
X11122659Y-2219960D01*
X11122659Y-2209800D01*
X11120120Y-2204720D01*
X11115040Y-2199639D01*
X11109959Y-2197100D01*
X11102340Y-2197100D01*
X11102340Y-2209800D02*
G01*
X11102340Y-2197100D01*
X11069320Y-2180336D02*
G01*
X11122659Y-2180336D01*
X11069320Y-2180336D02*
G01*
X11122659Y-2144776D01*
X11069320Y-2144776D02*
G01*
X11122659Y-2144776D01*
X11069320Y-2128012D02*
G01*
X11122659Y-2128012D01*
X11069320Y-2128012D02*
G01*
X11069320Y-2110231D01*
X11071859Y-2102612D01*
X11076940Y-2097531D01*
X11082020Y-2094992D01*
X11089640Y-2092452D01*
X11102340Y-2092452D01*
X11109959Y-2094992D01*
X11115040Y-2097531D01*
X11120120Y-2102612D01*
X11122659Y-2110231D01*
X11122659Y-2128012D01*
X11069320Y-2489200D02*
G01*
X11122659Y-2489200D01*
X11069320Y-2489200D02*
G01*
X11069320Y-2466339D01*
X11071859Y-2458720D01*
X11074400Y-2456179D01*
X11079479Y-2453639D01*
X11084559Y-2453639D01*
X11089640Y-2456179D01*
X11092179Y-2458720D01*
X11094720Y-2466339D01*
X11094720Y-2489200D01*
X11094720Y-2471420D02*
G01*
X11122659Y-2453639D01*
X11076940Y-2401315D02*
G01*
X11071859Y-2406395D01*
X11069320Y-2414015D01*
X11069320Y-2424176D01*
X11071859Y-2431795D01*
X11076940Y-2436876D01*
X11082020Y-2436876D01*
X11087100Y-2434336D01*
X11089640Y-2431795D01*
X11092179Y-2426715D01*
X11097259Y-2411476D01*
X11099800Y-2406395D01*
X11102340Y-2403855D01*
X11107420Y-2401315D01*
X11115040Y-2401315D01*
X11120120Y-2406395D01*
X11122659Y-2414015D01*
X11122659Y-2424176D01*
X11120120Y-2431795D01*
X11115040Y-2436876D01*
X11069320Y-2366771D02*
G01*
X11122659Y-2366771D01*
X11069320Y-2384552D02*
G01*
X11069320Y-2348992D01*
X11069320Y-2743200D02*
G01*
X11122659Y-2722879D01*
X11069320Y-2702560D02*
G01*
X11122659Y-2722879D01*
X11082020Y-2647695D02*
G01*
X11076940Y-2650236D01*
X11071859Y-2655315D01*
X11069320Y-2660395D01*
X11069320Y-2670555D01*
X11071859Y-2675636D01*
X11076940Y-2680715D01*
X11082020Y-2683255D01*
X11089640Y-2685795D01*
X11102340Y-2685795D01*
X11109959Y-2683255D01*
X11115040Y-2680715D01*
X11120120Y-2675636D01*
X11122659Y-2670555D01*
X11122659Y-2660395D01*
X11120120Y-2655315D01*
X11115040Y-2650236D01*
X11109959Y-2647695D01*
X11082020Y-2592831D02*
G01*
X11076940Y-2595371D01*
X11071859Y-2600452D01*
X11069320Y-2605531D01*
X11069320Y-2615692D01*
X11071859Y-2620771D01*
X11076940Y-2625852D01*
X11082020Y-2628392D01*
X11089640Y-2630931D01*
X11102340Y-2630931D01*
X11109959Y-2628392D01*
X11115040Y-2625852D01*
X11120120Y-2620771D01*
X11122659Y-2615692D01*
X11122659Y-2605531D01*
X11120120Y-2600452D01*
X11115040Y-2595371D01*
X11109959Y-2592831D01*
X11058143Y-2969513D02*
G01*
X11131041Y-2997200D01*
X11058143Y-2969513D02*
G01*
X11131041Y-2941828D01*
X11106658Y-2986786D02*
G01*
X11106658Y-2952242D01*
X11058143Y-2912110D02*
G01*
X11058143Y-2874010D01*
X11085829Y-2894584D01*
X11085829Y-2884170D01*
X11089386Y-2877312D01*
X11092941Y-2874010D01*
X11103356Y-2870454D01*
X11110213Y-2870454D01*
X11120627Y-2874010D01*
X11127486Y-2880868D01*
X11131041Y-2891281D01*
X11131041Y-2901695D01*
X11127486Y-2912110D01*
X11123929Y-2915412D01*
X11117072Y-2918968D01*
X11058143Y-3223513D02*
G01*
X11131041Y-3251200D01*
X11058143Y-3223513D02*
G01*
X11131041Y-3195828D01*
X11106658Y-3240786D02*
G01*
X11106658Y-3206242D01*
X11075670Y-3169412D02*
G01*
X11072113Y-3169412D01*
X11065256Y-3166110D01*
X11061700Y-3162554D01*
X11058143Y-3155695D01*
X11058143Y-3141726D01*
X11061700Y-3134868D01*
X11065256Y-3131312D01*
X11072113Y-3128010D01*
X11078972Y-3128010D01*
X11085829Y-3131312D01*
X11096243Y-3138170D01*
X11131041Y-3172968D01*
X11131041Y-3124454D01*
X11058143Y-3452113D02*
G01*
X11131041Y-3479800D01*
X11058143Y-3452113D02*
G01*
X11131041Y-3424428D01*
X11106658Y-3469386D02*
G01*
X11106658Y-3434842D01*
X11072113Y-3401568D02*
G01*
X11068558Y-3394710D01*
X11058143Y-3384295D01*
X11131041Y-3384295D01*
X11058143Y-3706113D02*
G01*
X11131041Y-3733800D01*
X11058143Y-3706113D02*
G01*
X11131041Y-3678428D01*
X11106658Y-3723386D02*
G01*
X11106658Y-3688842D01*
X11058143Y-3634739D02*
G01*
X11061700Y-3645154D01*
X11072113Y-3652012D01*
X11089386Y-3655568D01*
X11099800Y-3655568D01*
X11117072Y-3652012D01*
X11127486Y-3645154D01*
X11131041Y-3634739D01*
X11131041Y-3627881D01*
X11127486Y-3617468D01*
X11117072Y-3610610D01*
X11099800Y-3607054D01*
X11089386Y-3607054D01*
X11072113Y-3610610D01*
X11061700Y-3617468D01*
X11058143Y-3627881D01*
X11058143Y-3634739D01*
X11072113Y-3987800D02*
G01*
X11068558Y-3980942D01*
X11058143Y-3970528D01*
X11131041Y-3970528D01*
X11058143Y-3906012D02*
G01*
X11058143Y-3940810D01*
X11089386Y-3944112D01*
X11085829Y-3940810D01*
X11082527Y-3930395D01*
X11082527Y-3919981D01*
X11085829Y-3909568D01*
X11092941Y-3902710D01*
X11103356Y-3899154D01*
X11110213Y-3899154D01*
X11120627Y-3902710D01*
X11127486Y-3909568D01*
X11131041Y-3919981D01*
X11131041Y-3930395D01*
X11127486Y-3940810D01*
X11123929Y-3944112D01*
X11117072Y-3947668D01*
X11072113Y-4241800D02*
G01*
X11068558Y-4234942D01*
X11058143Y-4224528D01*
X11131041Y-4224528D01*
X11058143Y-4166870D02*
G01*
X11106658Y-4201668D01*
X11106658Y-4149597D01*
X11058143Y-4166870D02*
G01*
X11131041Y-4166870D01*
X11072113Y-4521200D02*
G01*
X11068558Y-4514342D01*
X11058143Y-4503928D01*
X11131041Y-4503928D01*
X11068558Y-4439412D02*
G01*
X11061700Y-4442968D01*
X11058143Y-4453381D01*
X11058143Y-4460239D01*
X11061700Y-4470654D01*
X11072113Y-4477512D01*
X11089386Y-4481068D01*
X11106658Y-4481068D01*
X11120627Y-4477512D01*
X11127486Y-4470654D01*
X11131041Y-4460239D01*
X11131041Y-4456684D01*
X11127486Y-4446270D01*
X11120627Y-4439412D01*
X11110213Y-4436110D01*
X11106658Y-4436110D01*
X11096243Y-4439412D01*
X11089386Y-4446270D01*
X11085829Y-4456684D01*
X11085829Y-4460239D01*
X11089386Y-4470654D01*
X11096243Y-4477512D01*
X11106658Y-4481068D01*
X11072113Y-4749800D02*
G01*
X11068558Y-4742942D01*
X11058143Y-4732528D01*
X11131041Y-4732528D01*
X11058143Y-4688839D02*
G01*
X11061700Y-4699254D01*
X11072113Y-4706112D01*
X11089386Y-4709668D01*
X11099800Y-4709668D01*
X11117072Y-4706112D01*
X11127486Y-4699254D01*
X11131041Y-4688839D01*
X11131041Y-4681981D01*
X11127486Y-4671568D01*
X11117072Y-4664710D01*
X11099800Y-4661154D01*
X11089386Y-4661154D01*
X11072113Y-4664710D01*
X11061700Y-4671568D01*
X11058143Y-4681981D01*
X11058143Y-4688839D01*
X2866643Y-1722628D02*
G01*
X2856229Y-1712213D01*
X2840736Y-1707134D01*
X2819908Y-1707134D01*
X2804413Y-1712213D01*
X2794000Y-1722628D01*
X2794000Y-1733042D01*
X2799079Y-1743455D01*
X2804413Y-1748536D01*
X2814827Y-1753870D01*
X2846070Y-1764284D01*
X2856229Y-1769363D01*
X2861563Y-1774444D01*
X2866643Y-1784857D01*
X2866643Y-1800605D01*
X2856229Y-1811020D01*
X2840736Y-1816100D01*
X2819908Y-1816100D01*
X2804413Y-1811020D01*
X2794000Y-1800605D01*
X2900934Y-1707134D02*
G01*
X2927095Y-1816100D01*
X2953004Y-1707134D02*
G01*
X2927095Y-1816100D01*
X2953004Y-1707134D02*
G01*
X2978911Y-1816100D01*
X3004820Y-1707134D02*
G01*
X2978911Y-1816100D01*
X3039109Y-1727707D02*
G01*
X3049524Y-1722628D01*
X3065272Y-1707134D01*
X3065272Y-1816100D01*
X5152643Y-1722628D02*
G01*
X5142229Y-1712213D01*
X5126736Y-1707134D01*
X5105908Y-1707134D01*
X5090413Y-1712213D01*
X5080000Y-1722628D01*
X5080000Y-1733042D01*
X5085079Y-1743455D01*
X5090413Y-1748536D01*
X5100827Y-1753870D01*
X5132070Y-1764284D01*
X5142229Y-1769363D01*
X5147563Y-1774444D01*
X5152643Y-1784857D01*
X5152643Y-1800605D01*
X5142229Y-1811020D01*
X5126736Y-1816100D01*
X5105908Y-1816100D01*
X5090413Y-1811020D01*
X5080000Y-1800605D01*
X5186934Y-1707134D02*
G01*
X5213095Y-1816100D01*
X5239004Y-1707134D02*
G01*
X5213095Y-1816100D01*
X5239004Y-1707134D02*
G01*
X5264911Y-1816100D01*
X5290820Y-1707134D02*
G01*
X5264911Y-1816100D01*
X5330443Y-1733042D02*
G01*
X5330443Y-1727707D01*
X5335524Y-1717294D01*
X5340858Y-1712213D01*
X5351272Y-1707134D01*
X5372100Y-1707134D01*
X5382259Y-1712213D01*
X5387593Y-1717294D01*
X5392674Y-1727707D01*
X5392674Y-1738121D01*
X5387593Y-1748536D01*
X5377179Y-1764284D01*
X5325109Y-1816100D01*
X5398008Y-1816100D01*
X7438643Y-1722628D02*
G01*
X7428229Y-1712213D01*
X7412736Y-1707134D01*
X7391908Y-1707134D01*
X7376413Y-1712213D01*
X7366000Y-1722628D01*
X7366000Y-1733042D01*
X7371079Y-1743455D01*
X7376413Y-1748536D01*
X7386827Y-1753870D01*
X7418070Y-1764284D01*
X7428229Y-1769363D01*
X7433563Y-1774444D01*
X7438643Y-1784857D01*
X7438643Y-1800605D01*
X7428229Y-1811020D01*
X7412736Y-1816100D01*
X7391908Y-1816100D01*
X7376413Y-1811020D01*
X7366000Y-1800605D01*
X7472934Y-1707134D02*
G01*
X7499095Y-1816100D01*
X7525004Y-1707134D02*
G01*
X7499095Y-1816100D01*
X7525004Y-1707134D02*
G01*
X7550911Y-1816100D01*
X7576820Y-1707134D02*
G01*
X7550911Y-1816100D01*
X7621524Y-1707134D02*
G01*
X7678674Y-1707134D01*
X7647686Y-1748536D01*
X7663179Y-1748536D01*
X7673593Y-1753870D01*
X7678674Y-1758950D01*
X7684008Y-1774444D01*
X7684008Y-1784857D01*
X7678674Y-1800605D01*
X7668259Y-1811020D01*
X7652765Y-1816100D01*
X7637272Y-1816100D01*
X7621524Y-1811020D01*
X7616443Y-1805686D01*
X7611109Y-1795271D01*
X2866643Y-4008628D02*
G01*
X2856229Y-3998213D01*
X2840736Y-3993134D01*
X2819908Y-3993134D01*
X2804413Y-3998213D01*
X2794000Y-4008628D01*
X2794000Y-4019042D01*
X2799079Y-4029455D01*
X2804413Y-4034536D01*
X2814827Y-4039870D01*
X2846070Y-4050284D01*
X2856229Y-4055363D01*
X2861563Y-4060444D01*
X2866643Y-4070857D01*
X2866643Y-4086605D01*
X2856229Y-4097020D01*
X2840736Y-4102100D01*
X2819908Y-4102100D01*
X2804413Y-4097020D01*
X2794000Y-4086605D01*
X2900934Y-3993134D02*
G01*
X2927095Y-4102100D01*
X2953004Y-3993134D02*
G01*
X2927095Y-4102100D01*
X2953004Y-3993134D02*
G01*
X2978911Y-4102100D01*
X3004820Y-3993134D02*
G01*
X2978911Y-4102100D01*
X3091179Y-3993134D02*
G01*
X3039109Y-4065778D01*
X3117088Y-4065778D01*
X3091179Y-3993134D02*
G01*
X3091179Y-4102100D01*
X5152643Y-4008628D02*
G01*
X5142229Y-3998213D01*
X5126736Y-3993134D01*
X5105908Y-3993134D01*
X5090413Y-3998213D01*
X5080000Y-4008628D01*
X5080000Y-4019042D01*
X5085079Y-4029455D01*
X5090413Y-4034536D01*
X5100827Y-4039870D01*
X5132070Y-4050284D01*
X5142229Y-4055363D01*
X5147563Y-4060444D01*
X5152643Y-4070857D01*
X5152643Y-4086605D01*
X5142229Y-4097020D01*
X5126736Y-4102100D01*
X5105908Y-4102100D01*
X5090413Y-4097020D01*
X5080000Y-4086605D01*
X5186934Y-3993134D02*
G01*
X5213095Y-4102100D01*
X5239004Y-3993134D02*
G01*
X5213095Y-4102100D01*
X5239004Y-3993134D02*
G01*
X5264911Y-4102100D01*
X5290820Y-3993134D02*
G01*
X5264911Y-4102100D01*
X5387593Y-3993134D02*
G01*
X5335524Y-3993134D01*
X5330443Y-4039870D01*
X5335524Y-4034536D01*
X5351272Y-4029455D01*
X5366765Y-4029455D01*
X5382259Y-4034536D01*
X5392674Y-4044950D01*
X5398008Y-4060444D01*
X5398008Y-4070857D01*
X5392674Y-4086605D01*
X5382259Y-4097020D01*
X5366765Y-4102100D01*
X5351272Y-4102100D01*
X5335524Y-4097020D01*
X5330443Y-4091686D01*
X5325109Y-4081271D01*
X7438643Y-4008628D02*
G01*
X7428229Y-3998213D01*
X7412736Y-3993134D01*
X7391908Y-3993134D01*
X7376413Y-3998213D01*
X7366000Y-4008628D01*
X7366000Y-4019042D01*
X7371079Y-4029455D01*
X7376413Y-4034536D01*
X7386827Y-4039870D01*
X7418070Y-4050284D01*
X7428229Y-4055363D01*
X7433563Y-4060444D01*
X7438643Y-4070857D01*
X7438643Y-4086605D01*
X7428229Y-4097020D01*
X7412736Y-4102100D01*
X7391908Y-4102100D01*
X7376413Y-4097020D01*
X7366000Y-4086605D01*
X7472934Y-3993134D02*
G01*
X7499095Y-4102100D01*
X7525004Y-3993134D02*
G01*
X7499095Y-4102100D01*
X7525004Y-3993134D02*
G01*
X7550911Y-4102100D01*
X7576820Y-3993134D02*
G01*
X7550911Y-4102100D01*
X7673593Y-4008628D02*
G01*
X7668259Y-3998213D01*
X7652765Y-3993134D01*
X7642352Y-3993134D01*
X7626858Y-3998213D01*
X7616443Y-4013707D01*
X7611109Y-4039870D01*
X7611109Y-4065778D01*
X7616443Y-4086605D01*
X7626858Y-4097020D01*
X7642352Y-4102100D01*
X7647686Y-4102100D01*
X7663179Y-4097020D01*
X7673593Y-4086605D01*
X7678674Y-4070857D01*
X7678674Y-4065778D01*
X7673593Y-4050284D01*
X7663179Y-4039870D01*
X7647686Y-4034536D01*
X7642352Y-4034536D01*
X7626858Y-4039870D01*
X7616443Y-4050284D01*
X7611109Y-4065778D01*
X2866643Y-6294628D02*
G01*
X2856229Y-6284213D01*
X2840736Y-6279134D01*
X2819908Y-6279134D01*
X2804413Y-6284213D01*
X2794000Y-6294628D01*
X2794000Y-6305042D01*
X2799079Y-6315455D01*
X2804413Y-6320536D01*
X2814827Y-6325870D01*
X2846070Y-6336284D01*
X2856229Y-6341363D01*
X2861563Y-6346444D01*
X2866643Y-6356857D01*
X2866643Y-6372605D01*
X2856229Y-6383020D01*
X2840736Y-6388100D01*
X2819908Y-6388100D01*
X2804413Y-6383020D01*
X2794000Y-6372605D01*
X2900934Y-6279134D02*
G01*
X2927095Y-6388100D01*
X2953004Y-6279134D02*
G01*
X2927095Y-6388100D01*
X2953004Y-6279134D02*
G01*
X2978911Y-6388100D01*
X3004820Y-6279134D02*
G01*
X2978911Y-6388100D01*
X3112008Y-6279134D02*
G01*
X3059938Y-6388100D01*
X3039109Y-6279134D02*
G01*
X3112008Y-6279134D01*
X5152643Y-6294628D02*
G01*
X5142229Y-6284213D01*
X5126736Y-6279134D01*
X5105908Y-6279134D01*
X5090413Y-6284213D01*
X5080000Y-6294628D01*
X5080000Y-6305042D01*
X5085079Y-6315455D01*
X5090413Y-6320536D01*
X5100827Y-6325870D01*
X5132070Y-6336284D01*
X5142229Y-6341363D01*
X5147563Y-6346444D01*
X5152643Y-6356857D01*
X5152643Y-6372605D01*
X5142229Y-6383020D01*
X5126736Y-6388100D01*
X5105908Y-6388100D01*
X5090413Y-6383020D01*
X5080000Y-6372605D01*
X5186934Y-6279134D02*
G01*
X5213095Y-6388100D01*
X5239004Y-6279134D02*
G01*
X5213095Y-6388100D01*
X5239004Y-6279134D02*
G01*
X5264911Y-6388100D01*
X5290820Y-6279134D02*
G01*
X5264911Y-6388100D01*
X5351272Y-6279134D02*
G01*
X5335524Y-6284213D01*
X5330443Y-6294628D01*
X5330443Y-6305042D01*
X5335524Y-6315455D01*
X5345938Y-6320536D01*
X5366765Y-6325870D01*
X5382259Y-6330950D01*
X5392674Y-6341363D01*
X5398008Y-6351778D01*
X5398008Y-6367271D01*
X5392674Y-6377686D01*
X5387593Y-6383020D01*
X5372100Y-6388100D01*
X5351272Y-6388100D01*
X5335524Y-6383020D01*
X5330443Y-6377686D01*
X5325109Y-6367271D01*
X5325109Y-6351778D01*
X5330443Y-6341363D01*
X5340858Y-6330950D01*
X5356352Y-6325870D01*
X5377179Y-6320536D01*
X5387593Y-6315455D01*
X5392674Y-6305042D01*
X5392674Y-6294628D01*
X5387593Y-6284213D01*
X5372100Y-6279134D01*
X5351272Y-6279134D01*
X7438643Y-6294628D02*
G01*
X7428229Y-6284213D01*
X7412736Y-6279134D01*
X7391908Y-6279134D01*
X7376413Y-6284213D01*
X7366000Y-6294628D01*
X7366000Y-6305042D01*
X7371079Y-6315455D01*
X7376413Y-6320536D01*
X7386827Y-6325870D01*
X7418070Y-6336284D01*
X7428229Y-6341363D01*
X7433563Y-6346444D01*
X7438643Y-6356857D01*
X7438643Y-6372605D01*
X7428229Y-6383020D01*
X7412736Y-6388100D01*
X7391908Y-6388100D01*
X7376413Y-6383020D01*
X7366000Y-6372605D01*
X7472934Y-6279134D02*
G01*
X7499095Y-6388100D01*
X7525004Y-6279134D02*
G01*
X7499095Y-6388100D01*
X7525004Y-6279134D02*
G01*
X7550911Y-6388100D01*
X7576820Y-6279134D02*
G01*
X7550911Y-6388100D01*
X7678674Y-6315455D02*
G01*
X7673593Y-6330950D01*
X7663179Y-6341363D01*
X7647686Y-6346444D01*
X7642352Y-6346444D01*
X7626858Y-6341363D01*
X7616443Y-6330950D01*
X7611109Y-6315455D01*
X7611109Y-6310121D01*
X7616443Y-6294628D01*
X7626858Y-6284213D01*
X7642352Y-6279134D01*
X7647686Y-6279134D01*
X7663179Y-6284213D01*
X7673593Y-6294628D01*
X7678674Y-6315455D01*
X7678674Y-6341363D01*
X7673593Y-6367271D01*
X7663179Y-6383020D01*
X7647686Y-6388100D01*
X7637272Y-6388100D01*
X7621524Y-6383020D01*
X7616443Y-6372605D01*
X10740643Y-6294628D02*
G01*
X10730229Y-6284213D01*
X10714736Y-6279134D01*
X10693908Y-6279134D01*
X10678413Y-6284213D01*
X10668000Y-6294628D01*
X10668000Y-6305042D01*
X10673079Y-6315455D01*
X10678413Y-6320536D01*
X10688827Y-6325870D01*
X10720070Y-6336284D01*
X10730229Y-6341363D01*
X10735563Y-6346444D01*
X10740643Y-6356857D01*
X10740643Y-6372605D01*
X10730229Y-6383020D01*
X10714736Y-6388100D01*
X10693908Y-6388100D01*
X10678413Y-6383020D01*
X10668000Y-6372605D01*
X10774934Y-6279134D02*
G01*
X10801095Y-6388100D01*
X10827004Y-6279134D02*
G01*
X10801095Y-6388100D01*
X10827004Y-6279134D02*
G01*
X10852911Y-6388100D01*
X10878820Y-6279134D02*
G01*
X10852911Y-6388100D01*
X10913109Y-6299707D02*
G01*
X10923524Y-6294628D01*
X10939272Y-6279134D01*
X10939272Y-6388100D01*
X11004550Y-6279134D02*
G01*
X10989056Y-6284213D01*
X10978641Y-6299707D01*
X10973561Y-6325870D01*
X10973561Y-6341363D01*
X10978641Y-6367271D01*
X10989056Y-6383020D01*
X11004550Y-6388100D01*
X11014963Y-6388100D01*
X11030711Y-6383020D01*
X11041125Y-6367271D01*
X11046206Y-6341363D01*
X11046206Y-6325870D01*
X11041125Y-6299707D01*
X11030711Y-6284213D01*
X11014963Y-6279134D01*
X11004550Y-6279134D01*
D12*
X9652000Y-1524000D02*
G01*
X9652000Y-4826000D01*
X11430000Y-4826000D01*
X11430000Y-1524000D01*
X9652000Y-1524000D01*
D10*
X10160000Y-1524000D02*
G01*
X10160000Y-1397000D01*
X10160000Y-1397000D02*
G01*
X10922000Y-1397000D01*
X10922000Y-1397000D02*
G01*
X10922000Y-1524000D01*
M02*
